<svg width="33" height="29" viewBox="0 0 33 29" fill="none" xmlns="http://www.w3.org/2000/svg">
<path d="M31.9001 21.7708L20.7147 3.22083C20.2624 2.51327 19.6392 1.93097 18.9027 1.52762C18.1661 1.12427 17.3399 0.912842 16.5001 0.912842C15.6603 0.912842 14.8341 1.12427 14.0975 1.52762C13.361 1.93097 12.7378 2.51327 12.2855 3.22083L1.10011 21.7708C0.704975 22.4295 0.490214 23.1806 0.477414 23.9486C0.464615 24.7166 0.654227 25.4744 1.02719 26.1458C1.45839 26.9016 2.08253 27.5294 2.83582 27.965C3.58911 28.4006 4.44454 28.6283 5.31469 28.625H27.6855C28.55 28.6342 29.4015 28.4153 30.1543 27.9902C30.9071 27.5652 31.5344 26.9491 31.973 26.2042C32.3569 25.5257 32.5526 24.757 32.5398 23.9776C32.527 23.1981 32.3061 22.4363 31.9001 21.7708ZM16.5001 22.7917C16.2117 22.7917 15.9297 22.7061 15.6899 22.5459C15.4501 22.3857 15.2632 22.1579 15.1528 21.8914C15.0424 21.6249 15.0135 21.3317 15.0698 21.0488C15.1261 20.7659 15.265 20.5061 15.4689 20.3021C15.6729 20.0982 15.9327 19.9593 16.2156 19.903C16.4985 19.8468 16.7917 19.8756 17.0582 19.986C17.3247 20.0964 17.5524 20.2833 17.7127 20.5231C17.8729 20.7629 17.9584 21.0449 17.9584 21.3333C17.9584 21.7201 17.8048 22.091 17.5313 22.3645C17.2578 22.638 16.8869 22.7917 16.5001 22.7917ZM17.9584 16.9583C17.9584 17.3451 17.8048 17.716 17.5313 17.9895C17.2578 18.263 16.8869 18.4167 16.5001 18.4167C16.1133 18.4167 15.7424 18.263 15.4689 17.9895C15.1954 17.716 15.0418 17.3451 15.0418 16.9583V11.125C15.0418 10.7382 15.1954 10.3673 15.4689 10.0938C15.7424 9.82031 16.1133 9.66667 16.5001 9.66667C16.8869 9.66667 17.2578 9.82031 17.5313 10.0938C17.8048 10.3673 17.9584 10.7382 17.9584 11.125V16.9583Z" fill="white"/>
</svg>
