<svg width="16" height="16" viewBox="0 0 16 16" fill="none" xmlns="http://www.w3.org/2000/svg">
<path d="M12.2103 1.88235C13.6122 1.88235 14.9237 2.3247 16 3.08706L14.9508 5.80705C14.2023 5.0954 13.2242 4.70237 12.2103 4.70588C9.94912 4.70588 8.14019 6.58823 8.14019 8.94116C8.14019 11.2941 9.94912 13.1765 12.2103 13.1765C13.1419 13.1765 13.9921 12.8565 14.6795 12.3106L15.7106 14.9929C14.654 15.6547 13.4435 16.003 12.2103 16C10.4112 16 8.68579 15.2563 7.41363 13.9325C6.14148 12.6087 5.4268 10.8133 5.4268 8.94116C5.4268 7.06905 6.14148 5.27361 7.41363 3.94983C8.68579 2.62604 10.4112 1.88235 12.2103 1.88235ZM2.7134 0C3.43304 0 4.1232 0.297478 4.63206 0.826992C5.14092 1.35651 5.4268 2.07468 5.4268 2.82353C5.4268 3.57237 5.14092 4.29055 4.63206 4.82006C4.1232 5.34957 3.43304 5.64705 2.7134 5.64705C1.99376 5.64705 1.3036 5.34957 0.794736 4.82006C0.285875 4.29055 0 3.57237 0 2.82353C0 2.07468 0.285875 1.35651 0.794736 0.826992C1.3036 0.297478 1.99376 0 2.7134 0ZM2.7134 1.88235C2.47352 1.88235 2.24346 1.98151 2.07384 2.15801C1.90422 2.33452 1.80893 2.57391 1.80893 2.82353C1.80893 3.07314 1.90422 3.31253 2.07384 3.48904C2.24346 3.66554 2.47352 3.7647 2.7134 3.7647C2.95328 3.7647 3.18333 3.66554 3.35295 3.48904C3.52257 3.31253 3.61786 3.07314 3.61786 2.82353C3.61786 2.57391 3.52257 2.33452 3.35295 2.15801C3.18333 1.98151 2.95328 1.88235 2.7134 1.88235Z" fill="#BFC2CF"/>
</svg>
