<svg width="18" height="25" viewBox="0 0 18 25" fill="none" xmlns="http://www.w3.org/2000/svg">
<path d="M1 13.736H7C7.26522 13.736 7.51957 13.5913 7.70711 13.3337C7.89464 13.0761 8 12.7267 8 12.3624V1.3736C8 1.0093 7.89464 0.65992 7.70711 0.402319C7.51957 0.144719 7.26522 0 7 0H1C0.734784 0 0.48043 0.144719 0.292893 0.402319C0.105357 0.65992 0 1.0093 0 1.3736V12.3624C0 12.7267 0.105357 13.0761 0.292893 13.3337C0.48043 13.5913 0.734784 13.736 1 13.736ZM0 23.3513C0 23.7156 0.105357 24.065 0.292893 24.3226C0.48043 24.5802 0.734784 24.7249 1 24.7249H7C7.26522 24.7249 7.51957 24.5802 7.70711 24.3226C7.89464 24.065 8 23.7156 8 23.3513V17.8569C8 17.4926 7.89464 17.1432 7.70711 16.8856C7.51957 16.628 7.26522 16.4833 7 16.4833H1C0.734784 16.4833 0.48043 16.628 0.292893 16.8856C0.105357 17.1432 0 17.4926 0 17.8569V23.3513ZM10 23.3513C10 23.7156 10.1054 24.065 10.2929 24.3226C10.4804 24.5802 10.7348 24.7249 11 24.7249H17C17.2652 24.7249 17.5196 24.5802 17.7071 24.3226C17.8946 24.065 18 23.7156 18 23.3513V13.736C18 13.3717 17.8946 13.0224 17.7071 12.7648C17.5196 12.5072 17.2652 12.3624 17 12.3624H11C10.7348 12.3624 10.4804 12.5072 10.2929 12.7648C10.1054 13.0224 10 13.3717 10 13.736V23.3513ZM11 9.61523H17C17.2652 9.61523 17.5196 9.47051 17.7071 9.21291C17.8946 8.95531 18 8.60593 18 8.24163V1.3736C18 1.0093 17.8946 0.65992 17.7071 0.402319C17.5196 0.144719 17.2652 0 17 0H11C10.7348 0 10.4804 0.144719 10.2929 0.402319C10.1054 0.65992 10 1.0093 10 1.3736V8.24163C10 8.60593 10.1054 8.95531 10.2929 9.21291C10.4804 9.47051 10.7348 9.61523 11 9.61523Z" fill="white"/>
</svg>
