<svg width="35" height="39" viewBox="0 0 35 39" fill="none" xmlns="http://www.w3.org/2000/svg">
<path d="M5.0625 0.393799V18.7261C2.32812 20.7545 0.375 23.8522 0.375 27.5669C0.375 33.7288 5.28906 38.7559 11.3125 38.7559C17.3359 38.7559 22.25 33.7288 22.25 27.5669C22.25 23.8522 20.2969 20.7545 17.5625 18.7261V16.378H20.6875V13.1812H17.5625V9.98432H20.6875V6.78748H17.5625V3.59064H20.6875V0.393799H5.0625ZM29.2812 0.393799C26.2656 0.393799 23.8125 2.90332 23.8125 5.98827C23.8125 9.07322 26.2656 11.5827 29.2812 11.5827C32.2969 11.5827 34.75 9.07322 34.75 5.98827C34.75 2.90332 32.2969 0.393799 29.2812 0.393799ZM8.1875 3.59064H14.4375V20.2238L15.2188 20.6745C17.5562 22.0604 19.125 24.6067 19.125 27.5669C19.125 31.9994 15.6453 35.559 11.3125 35.559C6.97969 35.559 3.5 31.9994 3.5 27.5669C3.5 24.6067 5.06875 22.0604 7.40625 20.6729L8.1875 20.2254V3.59064ZM29.2812 3.59064C30.5734 3.59064 31.625 4.66637 31.625 5.98827C31.625 7.31016 30.5734 8.3859 29.2812 8.3859C27.9891 8.3859 26.9375 7.31016 26.9375 5.98827C26.9375 4.66637 27.9891 3.59064 29.2812 3.59064ZM9.75 6.78748V23.0722C7.9375 23.7339 6.625 25.4906 6.625 27.5701C6.65656 28.8205 7.16427 30.0088 8.03991 30.8817C8.91554 31.7546 10.0898 32.2432 11.3125 32.2432C12.5352 32.2432 13.7095 31.7546 14.5851 30.8817C15.4607 30.0088 15.9684 28.8205 16 27.5701C16 25.4906 14.6875 23.7339 12.875 23.0722V6.78748H9.75Z" fill="white"/>
</svg>
