<svg width="21" height="22" viewBox="0 0 21 22" fill="none" xmlns="http://www.w3.org/2000/svg">
<path fill-rule="evenodd" clip-rule="evenodd" d="M3.5 0C2.57174 0 1.6815 0.289437 1.02513 0.804639C0.368749 1.31984 0 2.0186 0 2.74721V19.2305C0 19.9591 0.368749 20.6578 1.02513 21.173C1.6815 21.6882 2.57174 21.9777 3.5 21.9777H17.5C18.4283 21.9777 19.3185 21.6882 19.9749 21.173C20.6313 20.6578 21 19.9591 21 19.2305V7.4367C20.9998 6.70815 20.6309 6.0095 19.9745 5.49442L14 0.804932C13.3438 0.289695 12.4537 0.000155595 11.5255 0H3.5ZM7 13.736C7 13.3717 6.81563 13.0224 6.48744 12.7648C6.15925 12.5072 5.71413 12.3624 5.25 12.3624C4.78587 12.3624 4.34075 12.5072 4.01256 12.7648C3.68437 13.0224 3.5 13.3717 3.5 13.736V17.8569C3.5 18.2212 3.68437 18.5705 4.01256 18.8281C4.34075 19.0857 4.78587 19.2305 5.25 19.2305C5.71413 19.2305 6.15925 19.0857 6.48744 18.8281C6.81563 18.5705 7 18.2212 7 17.8569V13.736ZM10.5 9.61523C10.9641 9.61523 11.4092 9.75995 11.7374 10.0176C12.0656 10.2752 12.25 10.6245 12.25 10.9888V17.8569C12.25 18.2212 12.0656 18.5705 11.7374 18.8281C11.4092 19.0857 10.9641 19.2305 10.5 19.2305C10.0359 19.2305 9.59075 19.0857 9.26256 18.8281C8.93437 18.5705 8.75 18.2212 8.75 17.8569V10.9888C8.75 10.6245 8.93437 10.2752 9.26256 10.0176C9.59075 9.75995 10.0359 9.61523 10.5 9.61523ZM17.5 8.24163C17.5 7.87733 17.3156 7.52794 16.9874 7.27034C16.6592 7.01274 16.2141 6.86802 15.75 6.86802C15.2859 6.86802 14.8408 7.01274 14.5126 7.27034C14.1844 7.52794 14 7.87733 14 8.24163V17.8569C14 18.2212 14.1844 18.5705 14.5126 18.8281C14.8408 19.0857 15.2859 19.2305 15.75 19.2305C16.2141 19.2305 16.6592 19.0857 16.9874 18.8281C17.3156 18.5705 17.5 18.2212 17.5 17.8569V8.24163Z" fill="white"/>
</svg>
