<svg width="20" height="13" viewBox="0 0 20 13" fill="none" xmlns="http://www.w3.org/2000/svg">
<path d="M5.76 9.69429C4.67 8.76857 4 7.48286 4 6.06C4 4.63714 4.67 3.35143 5.76 2.42571L7.18 3.64286C6.45 4.26 6 5.11714 6 6.06C6 7.00286 6.45 7.86 7.17 8.48571L5.76 9.69429ZM14.24 9.69429C15.33 8.76857 16 7.48286 16 6.06C16 4.63714 15.33 3.35143 14.24 2.42571L12.82 3.64286C13.55 4.26 14 5.11714 14 6.06C14 7.00286 13.55 7.86 12.83 8.48571L14.24 9.69429ZM10 4.34571C8.9 4.34571 8 5.11714 8 6.06C8 7.00286 8.9 7.77429 10 7.77429C11.1 7.77429 12 7.00286 12 6.06C12 5.11714 11.1 4.34571 10 4.34571ZM18 6.06C18 7.95429 17.1 9.66857 15.65 10.9029L17.07 12.12C18.88 10.5686 20 8.42571 20 6.06C20 3.69429 18.88 1.55143 17.07 0L15.65 1.21714C16.396 1.85101 16.9878 2.60543 17.3912 3.43673C17.7945 4.26803 18.0015 5.15967 18 6.06ZM4.35 1.21714L2.93 0C1.12 1.55143 0 3.69429 0 6.06C0 8.42571 1.12 10.5686 2.93 12.12L4.35 10.9029C2.9 9.66857 2 7.95429 2 6.06C2 4.16571 2.9 2.45143 4.35 1.21714Z" fill="white"/>
</svg>
